# xmcd
#
# Track frame offsets: 
#        182
#        14565
#        24575
#        38675
#        51867
#        63877
#        75095
#        108660
#        126397
#        138015
#        152590
#        169297
#        184872
#        195732
#        205907
#        217375
#        229787
#        240027
#        252070
#        264685
#
# Disc length: 3751 seconds
#
# Revision: 3
# Processed by: cddbd v1.5PL3 Copyright (c) Steve Scherf et al.
# Submitted via: ExactAudioCopy v0.95a3
#
DISCID=110ea514
DTITLE=Buddy Guy - I Got A Strange Feeling
DYEAR=1992
DGENRE=Blues
TTITLE0=Broken Hearted Blues
TTITLE1=First Time I Met The Blues
TTITLE2=I Got I Strange Feeling
TTITLE3=Let Me Love You baby
TTITLE4=Ten Years Ago
TTITLE5=Watch Yourself
TTITLE6=Stone Crazy
TTITLE7=When My Left Eye Jumps
TTITLE8=No Lie
TTITLE9=My Time After A While
TTITLE10=Every Girl I See
TTITLE11=Leave My Girl Alone
TTITLE12=Crazy Love
TTITLE13=Too Many Years
TTITLE14=Keep It To Yourself
TTITLE15=Mother-in-Law
TTITLE16=She Sweets Me To A Tee
TTITLE17=Goin' Home
TTITLE18=I Suffer With The Blues
TTITLE19=Buddy's Groove
EXTD=ID3G:   0
EXTT0=
EXTT1=
EXTT2=
EXTT3=
EXTT4=
EXTT5=
EXTT6=
EXTT7=
EXTT8=
EXTT9=
EXTT10=
EXTT11=
EXTT12=
EXTT13=
EXTT14=
EXTT15=
EXTT16=
EXTT17=
EXTT18=
EXTT19=
PLAYORDER=
